<svg width="10" height="12" viewBox="0 0 10 12" fill="none" xmlns="http://www.w3.org/2000/svg">
<path d="M8.59013 8.58096C8.56655 8.46653 8.47333 8.41332 8.40533 8.34181C7.91179 7.82059 7.41058 7.30395 6.91595 6.78217C6.70538 6.56075 6.68673 6.32446 6.85289 6.15625C7.01905 5.98805 7.25101 6.00292 7.4561 6.2169C8.24648 7.03658 9.03467 7.85854 9.82067 8.6828C10.062 8.93626 10.0592 9.11362 9.81574 9.36936C9.03632 10.1871 8.25489 11.0026 7.47145 11.8158C7.25539 12.0401 7.04372 12.0572 6.86824 11.8799C6.69276 11.7025 6.71909 11.4731 6.92747 11.2534C7.41607 10.7385 7.90905 10.2281 8.3982 9.71436C8.46674 9.64227 8.55722 9.58677 8.58519 9.47292C8.50787 9.39396 8.41245 9.43115 8.32746 9.43115C5.75121 9.42848 3.17387 9.42714 0.595428 9.42714C0.10683 9.42714 0.00318837 9.31615 0.00318841 8.80695C0.00318865 6.08054 0.00318889 3.35336 0.00318913 0.625427C-0.00296302 0.530019 -0.00020689 0.434213 0.0114165 0.33936C0.0530921 0.128244 0.181411 -0.00391569 0.391986 8.88054e-05C0.60256 0.00409426 0.72704 0.136828 0.765975 0.348517C0.775414 0.433781 0.777432 0.51976 0.772006 0.605405C0.772006 3.18001 0.775843 5.75461 0.767618 8.32636C0.767618 8.56951 0.833969 8.62616 1.0577 8.62501C3.47876 8.617 5.89982 8.62043 8.32088 8.61872C8.4141 8.62329 8.51007 8.65648 8.59013 8.58096Z" fill="#FF6B08"/>
</svg>
