<svg width="24" height="12" viewBox="0 0 24 12" fill="none" xmlns="http://www.w3.org/2000/svg">
<path d="M0.274948 6.68502C0.275228 6.68531 0.275463 6.68565 0.275791 6.68594L5.17442 11.7182C5.54141 12.0952 6.13498 12.0938 6.50028 11.7149C6.86553 11.3361 6.86412 10.7234 6.49714 10.3463L3.2082 6.96774L23.0625 6.96774C23.5803 6.96774 24 6.53448 24 6C24 5.46552 23.5803 5.03226 23.0625 5.03226L3.20825 5.03226L6.49709 1.65368C6.86408 1.27664 6.86548 0.663918 6.50023 0.285095C6.13494 -0.0938247 5.54131 -0.0951303 5.17437 0.281805L0.275745 5.31407C0.275463 5.31436 0.275228 5.31469 0.2749 5.31498C-0.0922724 5.69328 -0.0910993 6.30799 0.274948 6.68502Z" fill="#FF6B08"/>
</svg>
