<svg width="25" height="20" viewBox="0 0 25 20" fill="none" xmlns="http://www.w3.org/2000/svg">
<path d="M22.2206 0.904996L22.8416 1.871C18.5636 4.677 16.4246 7.483 16.4246 10.289C16.4246 11.715 17.0456 12.543 18.2876 12.773L21.1856 10.082C22.1056 10.404 22.9336 11.002 23.6696 11.876C24.4516 12.704 24.8426 13.785 24.8426 15.119C24.8426 16.453 24.3136 17.603 23.2556 18.569C22.1976 19.489 20.7946 19.949 19.0466 19.949C17.3446 19.949 15.9186 19.374 14.7686 18.224C13.6646 17.028 13.1126 15.395 13.1126 13.325C13.1126 8.817 16.1486 4.677 22.2206 0.904996ZM9.24864 0.904996L9.86964 1.871C5.59164 4.677 3.45264 7.483 3.45264 10.289C3.45264 11.715 4.07364 12.543 5.31564 12.773L8.21364 10.082C9.13365 10.404 9.96165 11.002 10.6976 11.876C11.4796 12.704 11.8706 13.785 11.8706 15.119C11.8706 16.453 11.3416 17.603 10.2836 18.569C9.22565 19.489 7.82265 19.949 6.07465 19.949C4.37265 19.949 2.94664 19.374 1.79664 18.224C0.692645 17.028 0.140645 15.395 0.140645 13.325C0.140645 8.817 3.17664 4.677 9.24864 0.904996Z" fill="#FF6B08"/>
</svg>
