<svg width="16" height="16" viewBox="0 0 16 16" fill="none" xmlns="http://www.w3.org/2000/svg">
<path d="M15.1999 7.19998H8.80002V0.799949C8.80002 0.358446 8.44158 0 7.99993 0C7.55842 0 7.19998 0.358446 7.19998 0.799949V7.19998H0.799949C0.358446 7.19998 0 7.55842 0 7.99993C0 8.44158 0.358446 8.80002 0.799949 8.80002H7.19998V15.1999C7.19998 15.6416 7.55842 16 7.99993 16C8.44158 16 8.80002 15.6416 8.80002 15.1999V8.80002H15.1999C15.6416 8.80002 16 8.44158 16 7.99993C16 7.55842 15.6416 7.19998 15.1999 7.19998Z" fill="white"/>
</svg>
