<svg width="16" height="22" viewBox="0 0 16 22" fill="none" xmlns="http://www.w3.org/2000/svg">
<path d="M15.1999 9.77734H8.80002V1.0863C8.80002 0.486758 8.44158 0 7.99993 0C7.55842 0 7.19998 0.486758 7.19998 1.0863V9.77734H0.799949C0.358446 9.77734 0 10.2641 0 10.8636C0 11.4634 0.358446 11.9501 0.799949 11.9501H7.19998V20.641C7.19998 21.2407 7.55842 21.7275 7.99993 21.7275C8.44158 21.7275 8.80002 21.2407 8.80002 20.641V11.9501H15.1999C15.6416 11.9501 16 11.4634 16 10.8636C16 10.2641 15.6416 9.77734 15.1999 9.77734Z" fill="white"/>
</svg>
