<svg width="54" height="54" viewBox="0 0 54 54" fill="none" xmlns="http://www.w3.org/2000/svg">
<g clip-path="url(#clip0_4304_3364)">
<path d="M20.25 47.25H40.5C42.3675 47.25 43.965 46.125 44.64 44.505L51.435 28.6425C51.6375 28.125 51.75 27.585 51.75 27V22.5C51.75 20.025 49.725 18 47.25 18H33.0525L35.19 7.7175L35.2575 6.9975C35.2575 6.075 34.875 5.22 34.2675 4.6125L31.8825 2.25L17.055 17.0775C16.245 17.8875 15.75 19.0125 15.75 20.25V42.75C15.75 45.225 17.775 47.25 20.25 47.25ZM20.25 20.25L30.015 10.485L27 22.5H47.25V27L40.5 42.75H20.25V20.25ZM2.25 20.25H11.25V47.25H2.25V20.25Z" fill="#A6ABB9"/>
</g>
<defs>
<clipPath id="clip0_4304_3364">
<rect width="54" height="54" fill="white"/>
</clipPath>
</defs>
</svg>
